<svg width="9" height="12" viewBox="0 0 9 12" fill="none" xmlns="http://www.w3.org/2000/svg">
  <path
      d="M5.43031 8.68355L5.72219 8.91995L6.03053 8.70545C6.30396 8.51524 6.61104 8.405 6.945 8.405C7.79148 8.405 8.48682 9.09449 8.5 9.94831C8.4982 10.8083 7.79515 11.5 6.945 11.5C6.08351 11.5 5.39 10.7962 5.39 9.945C5.39 9.72876 5.43575 9.51705 5.52241 9.3329L5.68933 8.97819L5.38469 8.73145L3.56969 7.26145L3.26229 7.01248L2.94928 7.25436C2.70621 7.44218 2.39357 7.555 2.055 7.555C1.19351 7.555 0.5 6.85124 0.5 6C0.5 5.14876 1.19351 4.445 2.055 4.445C2.37838 4.445 2.68558 4.56297 2.96947 4.76045L3.27781 4.97495L3.56969 4.73855L5.38469 3.26855L5.68933 3.02181L5.52241 2.6671C5.43495 2.48124 5.39 2.28426 5.39 2.055C5.39 1.19351 6.09376 0.5 6.945 0.5C7.79386 0.5 8.5 1.20614 8.5 2.055C8.5 2.89911 7.79863 3.595 6.945 3.595C6.60577 3.595 6.28784 3.48155 6.03909 3.30063L5.72862 3.07484L5.43031 3.31645L3.61531 4.78645L3.31067 5.03319L3.47759 5.3879C3.56505 5.57376 3.61 5.77074 3.61 6C3.61 6.21386 3.55719 6.41719 3.46766 6.63463L3.32582 6.97909L3.61531 7.21355L5.43031 8.68355Z"
      stroke="#777787" />
</svg>
